<svg xmlns="http://www.w3.org/2000/svg" xmlns:xlink="http://www.w3.org/1999/xlink" width="128" zoomAndPan="magnify" viewBox="0 0 96 95.999999" height="128" preserveAspectRatio="xMidYMid meet" version="1.0"><defs><clipPath id="dbdc91b0ef"><path d="M 6 5.015625 L 89 5.015625 L 89 90 L 6 90 Z M 6 5.015625 " clip-rule="nonzero"/></clipPath></defs><g clip-path="url(#dbdc91b0ef)"><path fill="#ffc0bb" d="M 83.429688 44.882812 C 81.574219 47.511719 79.542969 49.992188 77.816406 52.707031 C 75.808594 55.855469 74.40625 59.070312 73.5 62.691406 C 70.972656 72.828125 65.703125 83.023438 55.511719 87.1875 C 46.445312 90.875 36.425781 88.589844 27.941406 84.492188 C 19.84375 81.34375 11.8125 76.363281 8.203125 68.105469 C 8.183594 68.0625 8.160156 68.019531 8.160156 67.976562 C 0 47.402344 16.453125 20 39.492188 20.019531 C 45.535156 19.222656 50.4375 16.226562 55.382812 12.839844 C 59.699219 9.863281 64.710938 6.003906 70.066406 5.464844 C 71.707031 5.292969 73.347656 5.445312 74.921875 5.894531 C 75.140625 5.960938 75.3125 6.046875 75.484375 6.132812 C 75.722656 6.15625 75.9375 6.21875 76.175781 6.304688 C 77.902344 7.019531 79.5 7.988281 80.949219 9.152344 C 90.75 16.957031 89.84375 35.761719 83.429688 44.882812 Z M 83.429688 44.882812 " fill-opacity="1" fill-rule="evenodd"/></g><path fill="#863c3b" d="M 53.871094 74.035156 C 45.363281 79.683594 35.710938 77.632812 27.121094 73.320312 C 16.820312 68.125 10.601562 57.128906 11.464844 45.636719 L 11.464844 45.570312 C 11.746094 42.855469 12.394531 40.246094 13.367188 37.808594 C 8.183594 48.785156 7.167969 58.550781 10.34375 67.175781 C 13.148438 73.601562 19.324219 78.667969 28.867188 82.355469 C 48.667969 91.953125 65.25 85.957031 71.210938 62.152344 C 75.203125 46.195312 86.476562 44.0625 87.121094 27.457031 C 85.179688 33.691406 78.292969 38.84375 73.175781 42.359375 C 71.769531 44.449219 70.582031 47.511719 69.65625 49.734375 C 68.078125 53.570312 66.523438 57.386719 64.582031 61.054688 C 61.96875 66.011719 58.621094 70.90625 53.871094 74.035156 Z M 53.871094 74.035156 " fill-opacity="1" fill-rule="evenodd"/><path fill="#d8474a" d="M 56.722656 67.585938 C 46.292969 55.8125 30.445312 50.421875 14.984375 53.398438 C 16.625 60.75 21.503906 67.15625 28.480469 70.671875 C 42.296875 77.632812 50.847656 74.269531 56.722656 67.585938 Z M 56.722656 67.585938 " fill-opacity="1" fill-rule="evenodd"/><path fill="#d8474a" d="M 14.574219 51.113281 C 30.617188 48.332031 46.832031 54.691406 56.722656 67.585938 C 60.242188 63.554688 62.789062 58.316406 64.925781 53.355469 C 60.261719 47.101562 59.03125 38.910156 61.644531 31.554688 C 59.875 30.152344 58.75 28.0625 58.75 25.667969 C 58.75 21.484375 62.292969 18.078125 66.652344 18.078125 C 68.292969 18.078125 69.847656 18.554688 71.125 19.394531 C 73.28125 16.050781 74.382812 12.128906 74.277344 8.183594 C 63.414062 5.078125 55.273438 20.40625 39.6875 22.371094 C 29.625 22.671875 20.902344 28.667969 16.820312 37.3125 C 28.628906 42.101562 42.125 40.246094 52.1875 32.441406 C 42.472656 41.667969 28.328125 44.492188 15.828125 39.683594 C 15.136719 41.648438 14.660156 43.71875 14.445312 45.851562 C 14.292969 47.640625 14.359375 49.386719 14.574219 51.113281 Z M 14.574219 51.113281 " fill-opacity="1" fill-rule="evenodd"/><path fill="#d8474a" d="M 62.898438 32.351562 C 60.695312 39.039062 61.578125 46.390625 65.335938 52.363281 C 67.453125 47.359375 69.160156 42.789062 71.035156 40.222656 C 77.839844 35.585938 82.070312 31.511719 83.753906 27.996094 C 86.324219 22.023438 84.597656 15.058594 79.5 10.984375 C 78.03125 9.84375 76.652344 9.023438 75.3125 8.484375 C 75.613281 12.839844 74.878906 17.195312 73.066406 21.183594 C 74.039062 22.433594 74.578125 23.988281 74.578125 25.648438 C 74.578125 29.832031 71.058594 33.238281 66.675781 33.238281 C 65.292969 33.238281 63.996094 32.914062 62.898438 32.351562 Z M 62.898438 32.351562 " fill-opacity="1" fill-rule="evenodd"/><path fill="#ffffff" d="M 66.652344 31.621094 C 69.957031 31.621094 72.632812 28.945312 72.632812 25.648438 C 72.632812 22.347656 69.957031 19.675781 66.652344 19.675781 C 63.351562 19.675781 60.671875 22.347656 60.671875 25.648438 C 60.671875 28.945312 63.351562 31.621094 66.652344 31.621094 Z M 66.652344 31.621094 " fill-opacity="1" fill-rule="evenodd"/></svg>