<svg xmlns="http://www.w3.org/2000/svg" xmlns:xlink="http://www.w3.org/1999/xlink" width="128" zoomAndPan="magnify" viewBox="0 0 96 95.999999" height="128" preserveAspectRatio="xMidYMid meet" version="1.0"><defs><clipPath id="b0e85d8200"><path d="M 13.558594 12 L 82.558594 12 L 82.558594 93.652344 L 13.558594 93.652344 Z M 13.558594 12 " clip-rule="nonzero"/></clipPath><clipPath id="85251ad7fd"><path d="M 13.558594 53 L 82.558594 53 L 82.558594 69 L 13.558594 69 Z M 13.558594 53 " clip-rule="nonzero"/></clipPath><clipPath id="e62cbf46a6"><path d="M 27 2.152344 L 69 2.152344 L 69 16 L 27 16 Z M 27 2.152344 " clip-rule="nonzero"/></clipPath></defs><g clip-path="url(#b0e85d8200)"><path fill="#a6e7f0" d="M 74.21875 93.652344 L 21.898438 93.652344 C 17.300781 93.652344 13.558594 89.925781 13.558594 85.34375 L 13.558594 43.757812 C 13.652344 37.589844 16.488281 34.410156 16.609375 34.28125 C 21.066406 29.019531 29.3125 26.007812 32.238281 25.066406 L 32.238281 14.082031 C 32.238281 13.292969 32.878906 12.652344 33.671875 12.652344 C 42.582031 12.652344 52.996094 12.652344 62.445312 12.652344 C 63.238281 12.652344 63.882812 13.292969 63.882812 14.082031 L 63.882812 25.066406 C 66.808594 26.007812 75.058594 29.027344 79.546875 34.316406 C 79.632812 34.410156 82.464844 37.589844 82.558594 43.734375 L 82.558594 85.34375 C 82.5625 89.925781 78.820312 93.652344 74.21875 93.652344 Z M 74.21875 93.652344 " fill-opacity="1" fill-rule="evenodd"/></g><g clip-path="url(#85251ad7fd)"><path fill="#06b6d0" d="M 13.558594 53.304688 L 82.558594 53.304688 L 82.558594 68.269531 L 13.558594 68.269531 Z M 13.558594 53.304688 " fill-opacity="1" fill-rule="evenodd"/></g><g clip-path="url(#e62cbf46a6)"><path fill="#06b6d0" d="M 66.199219 15.511719 L 29.917969 15.511719 C 28.445312 15.511719 27.246094 14.316406 27.246094 12.847656 L 27.246094 4.824219 C 27.242188 3.351562 28.445312 2.160156 29.917969 2.160156 L 66.199219 2.160156 C 67.675781 2.160156 68.875 3.351562 68.875 4.824219 L 68.875 12.847656 C 68.875 14.316406 67.675781 15.511719 66.199219 15.511719 Z M 66.199219 15.511719 " fill-opacity="1" fill-rule="evenodd"/></g><path fill="#058597" d="M 64.472656 80.023438 L 31.648438 80.023438 C 28.441406 80.023438 25.832031 77.425781 25.832031 74.230469 L 25.832031 47.347656 C 25.832031 44.152344 28.441406 41.550781 31.648438 41.550781 L 64.472656 41.550781 C 67.679688 41.550781 70.289062 44.152344 70.289062 47.347656 L 70.289062 74.230469 C 70.289062 77.425781 67.679688 80.023438 64.472656 80.023438 Z M 64.472656 80.023438 " fill-opacity="1" fill-rule="evenodd"/><path fill="#fc9713" d="M 49.464844 72.488281 C 47.363281 72.492188 45.320312 71.40625 44.195312 69.46875 C 43.96875 69.078125 43.785156 68.660156 43.652344 68.222656 C 43.417969 67.46875 43.84375 66.667969 44.601562 66.4375 C 45.0625 66.296875 45.886719 64.5 46.511719 63.285156 C 46.410156 63.191406 46.320312 63.082031 46.25 62.953125 C 45.851562 62.269531 46.085938 61.394531 46.773438 61 L 54.933594 56.308594 C 56.332031 55.503906 57.96875 55.289062 59.539062 55.707031 C 61.109375 56.128906 62.417969 57.125 63.226562 58.519531 C 64.035156 59.917969 64.25 61.546875 63.828125 63.109375 C 63.40625 64.675781 62.40625 65.980469 61.003906 66.785156 L 52.488281 71.683594 C 51.535156 72.230469 50.492188 72.488281 49.464844 72.488281 Z M 49.464844 72.488281 " fill-opacity="1" fill-rule="evenodd"/><path fill="#fc630d" d="M 49.347656 59.519531 L 51.832031 58.089844 L 57.980469 68.523438 L 55.496094 69.953125 Z M 49.347656 59.519531 " fill-opacity="1" fill-rule="evenodd"/><path fill="#fcd01a" d="M 43.078125 69.660156 C 40.90625 69.660156 38.890625 68.503906 37.808594 66.640625 L 32.894531 58.15625 C 32.085938 56.761719 31.871094 55.132812 32.292969 53.566406 C 32.710938 52.003906 33.714844 50.699219 35.117188 49.890625 C 36.035156 49.363281 37.078125 49.085938 38.136719 49.085938 C 40.308594 49.085938 42.328125 50.242188 43.410156 52.105469 L 48.324219 60.589844 C 49.132812 61.984375 49.347656 63.613281 48.925781 65.179688 C 48.507812 66.742188 47.503906 68.046875 46.105469 68.851562 C 45.183594 69.378906 44.140625 69.660156 43.078125 69.660156 Z M 43.078125 69.660156 " fill-opacity="1" fill-rule="evenodd"/><path fill="#fc9713" d="M 36.09375 63.679688 L 34.660156 61.203125 L 45.183594 55.171875 L 46.617188 57.644531 Z M 36.09375 63.679688 " fill-opacity="1" fill-rule="evenodd"/></svg>